<?xml version="1.0" encoding="UTF-8" standalone="no"?>
<!-- Generated by Microsoft Visio, SVG Export Pump-Unpressed.svg Page-1 -->

<svg
   width="11in"
   height="8.5in"
   viewBox="0 0 792 612"
   xml:space="preserve"
   color-interpolation-filters="sRGB"
   class="st5"
   version="1.1"
   id="svg26"
   sodipodi:docname="Pump-Unpressed.svg"
   inkscape:version="1.4.3 (0d15f75, 2025-12-25)"
   xmlns:inkscape="http://www.inkscape.org/namespaces/inkscape"
   xmlns:sodipodi="http://sodipodi.sourceforge.net/DTD/sodipodi-0.dtd"
   xmlns="http://www.w3.org/2000/svg"
   xmlns:svg="http://www.w3.org/2000/svg"
   xmlns:v="http://schemas.microsoft.com/visio/2003/SVGExtensions/"><defs
   id="defs26" /><sodipodi:namedview
   id="namedview26"
   pagecolor="#505050"
   bordercolor="#eeeeee"
   borderopacity="1"
   inkscape:showpageshadow="0"
   inkscape:pageopacity="0"
   inkscape:pagecheckerboard="0"
   inkscape:deskcolor="#505050"
   inkscape:document-units="in"
   inkscape:zoom="0.97181373"
   inkscape:cx="526.33544"
   inkscape:cy="431.15259"
   inkscape:window-width="1898"
   inkscape:window-height="986"
   inkscape:window-x="3"
   inkscape:window-y="52"
   inkscape:window-maximized="0"
   inkscape:current-layer="svg26" />
	<v:documentProperties
   v:langID="1033"
   v:viewMarkup="false">
		<v:userDefs>
			<v:ud
   v:nameU="msvNoAutoConnect"
   v:val="VT0(0):26" />
		</v:userDefs>
	</v:documentProperties>

	<style
   type="text/css"
   id="style1">
	<![CDATA[
		.st1 {fill:#ffffff;stroke:#000000;stroke-linecap:round;stroke-linejoin:round;stroke-width:0.75}
		.st2 {fill:#ffffff}
		.st3 {stroke:#000000;stroke-linecap:round;stroke-linejoin:round;stroke-width:0.75}
		.st4 {fill:none;stroke:#000000;stroke-linecap:round;stroke-linejoin:round;stroke-width:0.75}
		.st5 {fill:none;fill-rule:evenodd;font-size:12px;overflow:visible;stroke-linecap:square;stroke-miterlimit:3}
	]]>
	</style>

	<g
   v:mID="0"
   v:index="1"
   v:groupContext="foregroundPage"
   id="g26"
   transform="matrix(2.2630349,0,0,2.2630349,-568.36686,-203.54123)"
   style="fill-opacity:1">
		<title
   id="title1">Page-1</title>
		<v:pageProperties
   v:drawingScale="1"
   v:pageScale="1"
   v:drawingUnits="19"
   v:shadowOffsetX="9"
   v:shadowOffsetY="-9" />
		<v:layer
   v:index="0"
   v:visibility="hidden"
   v:print="false"
   v:snap="false"
   v:glue="false" />
		<v:layer
   v:name="Connector"
   v:index="1" />
		<g
   id="group1082-1"
   transform="matrix(-0.8660254,-0.5,-0.5,0.8660254,876.659,-201.777)"
   v:mID="1082"
   v:groupContext="group"
   style="fill-opacity:1">
			<title
   id="title2">Sheet.1082</title>
			<g
   id="shape1079-2"
   v:mID="1079"
   v:groupContext="shape"
   transform="translate(59.0625,-31.2891)"
   style="fill-opacity:1">
				<title
   id="title3">Rectangle.1079</title>
				<v:userDefs>
					<v:ud
   v:nameU="visVersion"
   v:val="VT0(15):26" />
				</v:userDefs>
				<rect
   x="0"
   y="596.953"
   width="200.25"
   height="15.0469"
   class="st1"
   id="rect3"
   style="fill-opacity:1" />
			</g>
			<g
   id="shape1080-4"
   v:mID="1080"
   v:groupContext="shape"
   transform="translate(257.203,-28.3594)"
   style="fill-opacity:1">
				<title
   id="title4">Rounded Rectangle.1080</title>
				<v:userDefs>
					<v:ud
   v:nameU="CTypeTopLeftSnip"
   v:prompt=""
   v:val="VT0(0):5" />
					<v:ud
   v:nameU="CTypeTopRightSnip"
   v:prompt=""
   v:val="VT0(0):5" />
					<v:ud
   v:nameU="CTypeBotLeftSnip"
   v:prompt=""
   v:val="VT0(0):5" />
					<v:ud
   v:nameU="CTypeBotRightSnip"
   v:prompt=""
   v:val="VT0(0):5" />
					<v:ud
   v:nameU="CornerLockHoriz"
   v:prompt=""
   v:val="VT0(1):5" />
					<v:ud
   v:nameU="CornerLockVert"
   v:prompt=""
   v:val="VT0(1):5" />
					<v:ud
   v:nameU="CornerLockDiag"
   v:prompt=""
   v:val="VT0(0):5" />
					<v:ud
   v:nameU="TopLeftOffset"
   v:prompt=""
   v:val="VT0(0.15):1" />
					<v:ud
   v:nameU="TopRightOffset"
   v:prompt=""
   v:val="VT0(0.15):1" />
					<v:ud
   v:nameU="BotLeftOffset"
   v:prompt=""
   v:val="VT0(0.15):1" />
					<v:ud
   v:nameU="BotRightOffset"
   v:prompt=""
   v:val="VT0(0.15):1" />
					<v:ud
   v:nameU="visVersion"
   v:prompt=""
   v:val="VT0(15):26" />
					<v:ud
   v:nameU="TopLeftOffset"
   v:prompt=""
   v:val="VT0(0.046874999999996):1" />
					<v:ud
   v:nameU="TopRightOffset"
   v:prompt=""
   v:val="VT0(0.046874999999996):1" />
					<v:ud
   v:nameU="BotLeftOffset"
   v:prompt=""
   v:val="VT0(0.046874999999996):1" />
					<v:ud
   v:nameU="BotRightOffset"
   v:prompt=""
   v:val="VT0(0.046874999999996):1" />
				</v:userDefs>
				<path
   d="m 3.37,612 h 71.86 a 3.37494,3.37494 -180 0 0 3.38,-3.37 v -14.16 a 3.37494,3.37494 -180 0 0 -3.38,-3.38 H 3.37 A 3.37494,3.37494 -180 0 0 0,594.47 v 14.16 A 3.37494,3.37494 -180 0 0 3.37,612 Z"
   class="st1"
   id="path4"
   style="fill-opacity:1" />
			</g>
			<g
   id="shape1081-6"
   v:mID="1081"
   v:groupContext="shape"
   style="fill-opacity:1">
				<title
   id="title5">Sheet.1081</title>
				<path
   d="M 41.23,562.78 H 39.3 v 0.01 A 10.4062,10.4062 -180 0 0 38.81,562.78 38.8125,38.8125 -180 0 0 0,601.59 a 10.4063,10.4063 -180 1 0 20.81,0 18,18 0 0 1 18,-18 10.4062,10.4062 -180 0 0 0.49,-0.01 v 0.01 h 1.93 17.34 2.01 A 2.41871,2.41871 -180 0 0 63,581.18 V 565.2 a 2.41871,2.41871 -180 0 0 -2.42,-2.42 h -2.01 z"
   class="st1"
   id="path5"
   style="fill-opacity:1" />
			</g>
		</g>
		<g
   id="shape1084-8"
   v:mID="1084"
   v:groupContext="shape"
   transform="matrix(-1,0,0,1,600.75,-274.5)"
   style="fill-opacity:1">
			<title
   id="title6">Rounded Rectangle.1084</title>
			<v:userDefs>
				<v:ud
   v:nameU="CTypeTopLeftSnip"
   v:prompt=""
   v:val="VT0(0):5" />
				<v:ud
   v:nameU="CTypeTopRightSnip"
   v:prompt=""
   v:val="VT0(0):5" />
				<v:ud
   v:nameU="CTypeBotLeftSnip"
   v:prompt=""
   v:val="VT0(0):5" />
				<v:ud
   v:nameU="CTypeBotRightSnip"
   v:prompt=""
   v:val="VT0(0):5" />
				<v:ud
   v:nameU="CornerLockHoriz"
   v:prompt=""
   v:val="VT0(1):5" />
				<v:ud
   v:nameU="CornerLockVert"
   v:prompt=""
   v:val="VT0(1):5" />
				<v:ud
   v:nameU="CornerLockDiag"
   v:prompt=""
   v:val="VT0(0):5" />
				<v:ud
   v:nameU="TopLeftOffset"
   v:prompt=""
   v:val="VT0(0.15):1" />
				<v:ud
   v:nameU="TopRightOffset"
   v:prompt=""
   v:val="VT0(0.15):1" />
				<v:ud
   v:nameU="BotLeftOffset"
   v:prompt=""
   v:val="VT0(0.15):1" />
				<v:ud
   v:nameU="BotRightOffset"
   v:prompt=""
   v:val="VT0(0.15):1" />
				<v:ud
   v:nameU="visVersion"
   v:prompt=""
   v:val="VT0(15):26" />
				<v:ud
   v:nameU="TopLeftOffset"
   v:prompt=""
   v:val="VT0(0.040625):1" />
				<v:ud
   v:nameU="TopRightOffset"
   v:prompt=""
   v:val="VT0(0.040625):1" />
				<v:ud
   v:nameU="BotLeftOffset"
   v:prompt=""
   v:val="VT0(0.040625):1" />
				<v:ud
   v:nameU="BotRightOffset"
   v:prompt=""
   v:val="VT0(0.040625):1" />
			</v:userDefs>
			<path
   d="m 2.92,612 h 23.4 a 2.92495,2.92495 -180 0 0 2.93,-2.93 V 595.42 A 2.92495,2.92495 -180 0 0 26.32,592.5 H 2.93 A 2.92495,2.92495 -180 0 0 0,595.43 v 13.65 A 2.92495,2.92495 -180 0 0 2.93,612 Z"
   class="st1"
   id="path6"
   style="fill-opacity:1" />
		</g>
		<g
   id="shape1085-10"
   v:mID="1085"
   v:groupContext="shape"
   transform="translate(532.125,-295.312)"
   style="fill-opacity:1">
			<title
   id="title7">Rounded Rectangle.1085</title>
			<v:userDefs>
				<v:ud
   v:nameU="CTypeTopLeftSnip"
   v:prompt=""
   v:val="VT0(0):5" />
				<v:ud
   v:nameU="CTypeTopRightSnip"
   v:prompt=""
   v:val="VT0(0):5" />
				<v:ud
   v:nameU="CTypeBotLeftSnip"
   v:prompt=""
   v:val="VT0(0):5" />
				<v:ud
   v:nameU="CTypeBotRightSnip"
   v:prompt=""
   v:val="VT0(0):5" />
				<v:ud
   v:nameU="CornerLockHoriz"
   v:prompt=""
   v:val="VT0(1):5" />
				<v:ud
   v:nameU="CornerLockVert"
   v:prompt=""
   v:val="VT0(1):5" />
				<v:ud
   v:nameU="CornerLockDiag"
   v:prompt=""
   v:val="VT0(0):5" />
				<v:ud
   v:nameU="TopLeftOffset"
   v:prompt=""
   v:val="VT0(0.15):1" />
				<v:ud
   v:nameU="TopRightOffset"
   v:prompt=""
   v:val="VT0(0.15):1" />
				<v:ud
   v:nameU="BotLeftOffset"
   v:prompt=""
   v:val="VT0(0.15):1" />
				<v:ud
   v:nameU="BotRightOffset"
   v:prompt=""
   v:val="VT0(0.15):1" />
				<v:ud
   v:nameU="visVersion"
   v:prompt=""
   v:val="VT0(15):26" />
				<v:ud
   v:nameU="TopLeftOffset"
   v:prompt=""
   v:val="VT0(0.1953125):1" />
				<v:ud
   v:nameU="TopRightOffset"
   v:prompt=""
   v:val="VT0(0.1953125):1" />
				<v:ud
   v:nameU="BotLeftOffset"
   v:prompt=""
   v:val="VT0(0.1953125):1" />
				<v:ud
   v:nameU="BotRightOffset"
   v:prompt=""
   v:val="VT0(0.1953125):1" />
			</v:userDefs>
			<path
   d="M 14.06,612 H 29.81 A 14.0623,14.0623 -180 0 0 43.87,597.94 V 585.35 A 14.0623,14.0623 -180 0 0 29.81,571.29 H 14.06 A 14.0623,14.0623 -180 0 0 0,585.35 v 12.59 A 14.0623,14.0623 -180 0 0 14.06,612 Z"
   class="st1"
   id="path7"
   style="fill-opacity:1" />
		</g>
		<g
   id="group1061-12"
   transform="matrix(-1,0,0,1,584.437,-252)"
   v:mID="1061"
   v:groupContext="group"
   style="fill-opacity:1">
			<title
   id="title8">Sheet.1061</title>
			<g
   id="shape1004-13"
   v:mID="1004"
   v:groupContext="shape"
   transform="translate(68.0624,-8.3781)"
   style="fill-opacity:1">
				<title
   id="title9">Sheet.1004</title>
				<rect
   x="0"
   y="564.047"
   width="236.25"
   height="47.953098"
   class="st1"
   id="rect9"
   style="fill-opacity:1" />
			</g>
			<g
   id="shape1009-15"
   v:mID="1009"
   v:groupContext="shape"
   transform="translate(312.75,-10.6984)"
   style="fill-opacity:1">
				<title
   id="title10">Sheet.1009</title>
				<path
   d="m 5.91,574.59 v 31.78 L 0,612 v -43.31 z"
   class="st1"
   id="path10"
   style="fill-opacity:1" />
			</g>
			<g
   id="shape1018-17"
   v:mID="1018"
   v:groupContext="shape"
   transform="translate(318.937,-24.2687)"
   style="fill-opacity:1">
				<title
   id="title11">Sheet.1018</title>
				<path
   d="m 6.79,596.66 a 6.99258,6.99258 0 1 1 0,13.98 z M 0,612 H 6.61 V 595.83 H 0 Z"
   class="st2"
   id="path11"
   style="fill-opacity:1" />
				<path
   d="m 6.79,596.66 a 6.99258,6.99258 0 1 1 0,13.98 v -13.98"
   class="st3"
   id="path12"
   style="fill-opacity:1" />
				<path
   d="M 6.61,599.98 H 0"
   class="st3"
   id="path13"
   style="fill-opacity:1" />
				<path
   d="M 6.61,607.85 H 0"
   class="st3"
   id="path14"
   style="fill-opacity:1" />
				<path
   d="M 0,612 H 6.61 V 595.83 H 0 V 612"
   class="st3"
   id="path15"
   style="fill-opacity:1" />
			</g>
			<g
   id="shape1019-23"
   v:mID="1019"
   v:groupContext="shape"
   transform="rotate(90.3,181.46182,734.00511)"
   style="fill-opacity:1">
				<title
   id="title15">Snip and Round Corner Rectangle.1019</title>
				<v:userDefs>
					<v:ud
   v:nameU="CTypeTopLeftSnip"
   v:prompt=""
   v:val="VT0(0):5" />
					<v:ud
   v:nameU="CTypeTopRightSnip"
   v:prompt=""
   v:val="VT0(1):5" />
					<v:ud
   v:nameU="CTypeBotLeftSnip"
   v:prompt=""
   v:val="VT0(1):5" />
					<v:ud
   v:nameU="CTypeBotRightSnip"
   v:prompt=""
   v:val="VT0(0):5" />
					<v:ud
   v:nameU="CornerLockHoriz"
   v:prompt=""
   v:val="VT0(0):5" />
					<v:ud
   v:nameU="CornerLockVert"
   v:prompt=""
   v:val="VT0(0):5" />
					<v:ud
   v:nameU="CornerLockDiag"
   v:prompt=""
   v:val="VT0(0):5" />
					<v:ud
   v:nameU="TopLeftOffset"
   v:prompt=""
   v:val="VT0(0.15):1" />
					<v:ud
   v:nameU="TopRightOffset"
   v:prompt=""
   v:val="VT0(0.15):1" />
					<v:ud
   v:nameU="BotLeftOffset"
   v:prompt=""
   v:val="VT0(0.15):1" />
					<v:ud
   v:nameU="BotRightOffset"
   v:prompt=""
   v:val="VT0(0.15):1" />
					<v:ud
   v:nameU="visVersion"
   v:prompt=""
   v:val="VT0(15):26" />
					<v:ud
   v:nameU="CTypeTopRightSnip"
   v:prompt=""
   v:val="VT0(0):5" />
					<v:ud
   v:nameU="CTypeBotLeftSnip"
   v:prompt=""
   v:val="VT0(0):5" />
					<v:ud
   v:nameU="CornerLockHoriz"
   v:prompt=""
   v:val="VT0(1):5" />
					<v:ud
   v:nameU="CornerLockVert"
   v:prompt=""
   v:val="VT0(1):5" />
					<v:ud
   v:nameU="TopLeftOffset"
   v:prompt=""
   v:val="VT0(0.035503468810004):1" />
					<v:ud
   v:nameU="TopRightOffset"
   v:prompt=""
   v:val="VT0(0.035503468810004):1" />
					<v:ud
   v:nameU="BotLeftOffset"
   v:prompt=""
   v:val="VT0(0.035503468810004):1" />
					<v:ud
   v:nameU="BotRightOffset"
   v:prompt=""
   v:val="VT0(0.035503468810004):1" />
				</v:userDefs>
				<path
   d="m 2.56,612 h 47.76 a 2.55621,2.55621 -180 0 0 2.56,-2.56 v -3.02 a 2.55621,2.55621 -180 0 0 -2.56,-2.55 H 2.56 A 2.55621,2.55621 -180 0 0 0,606.42 v 3.02 A 2.55621,2.55621 -180 0 0 2.56,612 Z"
   class="st1"
   id="path16"
   style="fill-opacity:1" />
			</g>
			<g
   id="shape1020-25"
   v:mID="1020"
   v:groupContext="shape"
   transform="translate(265.366,-56.3312)"
   style="fill-opacity:1">
				<title
   id="title16">Snip and Round Corner Rectangle.1020</title>
				<v:userDefs>
					<v:ud
   v:nameU="CTypeTopLeftSnip"
   v:prompt=""
   v:val="VT0(0):5" />
					<v:ud
   v:nameU="CTypeTopRightSnip"
   v:prompt=""
   v:val="VT0(1):5" />
					<v:ud
   v:nameU="CTypeBotLeftSnip"
   v:prompt=""
   v:val="VT0(1):5" />
					<v:ud
   v:nameU="CTypeBotRightSnip"
   v:prompt=""
   v:val="VT0(0):5" />
					<v:ud
   v:nameU="CornerLockHoriz"
   v:prompt=""
   v:val="VT0(0):5" />
					<v:ud
   v:nameU="CornerLockVert"
   v:prompt=""
   v:val="VT0(0):5" />
					<v:ud
   v:nameU="CornerLockDiag"
   v:prompt=""
   v:val="VT0(0):5" />
					<v:ud
   v:nameU="TopLeftOffset"
   v:prompt=""
   v:val="VT0(0.15):1" />
					<v:ud
   v:nameU="TopRightOffset"
   v:prompt=""
   v:val="VT0(0.15):1" />
					<v:ud
   v:nameU="BotLeftOffset"
   v:prompt=""
   v:val="VT0(0.15):1" />
					<v:ud
   v:nameU="BotRightOffset"
   v:prompt=""
   v:val="VT0(0.15):1" />
					<v:ud
   v:nameU="visVersion"
   v:prompt=""
   v:val="VT0(15):26" />
					<v:ud
   v:nameU="CTypeTopRightSnip"
   v:prompt=""
   v:val="VT0(0):5" />
					<v:ud
   v:nameU="CornerLockHoriz"
   v:prompt=""
   v:val="VT0(1):5" />
					<v:ud
   v:nameU="TopLeftOffset"
   v:prompt=""
   v:val="VT0(0.052960855651161):1" />
					<v:ud
   v:nameU="TopRightOffset"
   v:prompt=""
   v:val="VT0(0.052960855651161):1" />
					<v:ud
   v:nameU="BotLeftOffset"
   v:prompt=""
   v:val="VT0(0):1" />
					<v:ud
   v:nameU="BotRightOffset"
   v:prompt=""
   v:val="VT0(0):1" />
				</v:userDefs>
				<path
   d="m 0,612 h 23.48 v -3.81 a 3.81312,3.81312 -180 0 0 -3.81,-3.82 H 3.81 A 3.81312,3.81312 -180 0 0 0,608.19 Z"
   class="st1"
   id="path17"
   style="fill-opacity:1" />
			</g>
			<g
   id="shape1028-27"
   v:mID="1028"
   v:groupContext="shape"
   transform="translate(271.937)"
   style="fill-opacity:1">
				<title
   id="title17">Sheet.1028</title>
				<path
   d="m 25.48,593.43 a 3.12501,3.12501 -180 0 0 2,-2.91 3.12501,3.12501 -180 0 0 -6.25,-0.01 3.12501,3.12501 -180 0 0 2,2.92 v 16.32 H 4.25 v -16.32 a 3.12501,3.12501 -180 0 0 2,-2.91 3.12501,3.12501 -180 0 0 -6.25,-0.01 3.12501,3.12501 -180 0 0 2,2.92 v 17.44 A 1.12498,1.12498 -180 0 0 3.13,612 h 21.23 a 1.12498,1.12498 -180 0 0 1.12,-1.13 z"
   class="st1"
   id="path18"
   style="fill-opacity:1" />
			</g>
			<g
   id="shape1042-29"
   v:mID="1042"
   v:groupContext="shape"
   transform="translate(0,-1.06808)"
   style="fill-opacity:1">
				<title
   id="title18">Sheet.1042</title>
				<path
   d="M 68.14,610.26 V 585.51 H 68.06 V 556.74 H 43.31 v -7.54 a 1.38535,1.38535 -180 0 0 -1.38,-1.38 h -16.9 v -17.57 a 5.21476,5.21476 -180 0 0 -5.21,-5.21 H 5.21 A 5.21476,5.21476 -180 0 0 0,530.25 v 37.1 a 5.21476,5.21476 -180 0 0 3.66,4.98 v 35.68 a 2.24996,2.24996 -180 0 0 2.25,2.25 h 44.93 a 1.74442,1.74442 -180 1 0 3.48,0 h 10.33 a 1.745,1.745 -180 1 0 3.49,0 z"
   class="st1"
   id="path19"
   style="fill-opacity:1" />
			</g>
			<g
   id="shape1043-31"
   v:mID="1043"
   v:groupContext="shape"
   transform="translate(5.06241,-11.8125)"
   style="fill-opacity:1">
				<title
   id="title19">Sheet.1043</title>
				<path
   d="M 0,612 H 61.12"
   class="st3"
   id="path20"
   style="fill-opacity:1" />
			</g>
			<g
   id="shape1044-34"
   v:mID="1044"
   v:groupContext="shape"
   transform="translate(5.06241,-7.2)"
   style="fill-opacity:1">
				<title
   id="title20">Sheet.1044</title>
				<path
   d="M 0,612 H 61.12"
   class="st3"
   id="path21"
   style="fill-opacity:1" />
			</g>
			<g
   id="shape1045-37"
   v:mID="1045"
   v:groupContext="shape"
   transform="translate(5.06241,-46.8)"
   style="fill-opacity:1">
				<title
   id="title21">Sheet.1045</title>
				<path
   d="M 0,612 H 61.12"
   class="st3"
   id="path22"
   style="fill-opacity:1" />
			</g>
			<g
   id="shape1046-40"
   v:mID="1046"
   v:groupContext="shape"
   transform="translate(4.35929,-48.2344)"
   style="fill-opacity:1">
				<title
   id="title22">Rounded Rectangle.1046</title>
				<v:userDefs>
					<v:ud
   v:nameU="CTypeTopLeftSnip"
   v:prompt=""
   v:val="VT0(0):5" />
					<v:ud
   v:nameU="CTypeTopRightSnip"
   v:prompt=""
   v:val="VT0(0):5" />
					<v:ud
   v:nameU="CTypeBotLeftSnip"
   v:prompt=""
   v:val="VT0(0):5" />
					<v:ud
   v:nameU="CTypeBotRightSnip"
   v:prompt=""
   v:val="VT0(0):5" />
					<v:ud
   v:nameU="CornerLockHoriz"
   v:prompt=""
   v:val="VT0(1):5" />
					<v:ud
   v:nameU="CornerLockVert"
   v:prompt=""
   v:val="VT0(1):5" />
					<v:ud
   v:nameU="CornerLockDiag"
   v:prompt=""
   v:val="VT0(0):5" />
					<v:ud
   v:nameU="TopLeftOffset"
   v:prompt=""
   v:val="VT0(0.15):1" />
					<v:ud
   v:nameU="TopRightOffset"
   v:prompt=""
   v:val="VT0(0.15):1" />
					<v:ud
   v:nameU="BotLeftOffset"
   v:prompt=""
   v:val="VT0(0.15):1" />
					<v:ud
   v:nameU="BotRightOffset"
   v:prompt=""
   v:val="VT0(0.15):1" />
					<v:ud
   v:nameU="visVersion"
   v:prompt=""
   v:val="VT0(15):26" />
					<v:ud
   v:nameU="TopLeftOffset"
   v:prompt=""
   v:val="VT0(0.032118055555556):1" />
					<v:ud
   v:nameU="TopRightOffset"
   v:prompt=""
   v:val="VT0(0.032118055555556):1" />
					<v:ud
   v:nameU="BotLeftOffset"
   v:prompt=""
   v:val="VT0(0.032118055555556):1" />
					<v:ud
   v:nameU="BotRightOffset"
   v:prompt=""
   v:val="VT0(0.032118055555556):1" />
				</v:userDefs>
				<path
   d="m 2.31,612 h 5.78 a 2.31246,2.31246 -180 0 0 2.32,-2.31 V 586.05 A 2.31246,2.31246 -180 0 0 8.09,583.73 H 2.31 A 2.31246,2.31246 -180 0 0 0,586.05 v 23.64 A 2.31246,2.31246 -180 0 0 2.31,612 Z"
   class="st4"
   id="path23"
   style="fill-opacity:1" />
			</g>
			<g
   id="shape1047-42"
   v:mID="1047"
   v:groupContext="shape"
   transform="translate(16.7343,-48.2344)"
   style="fill-opacity:1">
				<title
   id="title23">Rounded Rectangle.1047</title>
				<v:userDefs>
					<v:ud
   v:nameU="CTypeTopLeftSnip"
   v:prompt=""
   v:val="VT0(0):5" />
					<v:ud
   v:nameU="CTypeTopRightSnip"
   v:prompt=""
   v:val="VT0(0):5" />
					<v:ud
   v:nameU="CTypeBotLeftSnip"
   v:prompt=""
   v:val="VT0(0):5" />
					<v:ud
   v:nameU="CTypeBotRightSnip"
   v:prompt=""
   v:val="VT0(0):5" />
					<v:ud
   v:nameU="CornerLockHoriz"
   v:prompt=""
   v:val="VT0(1):5" />
					<v:ud
   v:nameU="CornerLockVert"
   v:prompt=""
   v:val="VT0(1):5" />
					<v:ud
   v:nameU="CornerLockDiag"
   v:prompt=""
   v:val="VT0(0):5" />
					<v:ud
   v:nameU="TopLeftOffset"
   v:prompt=""
   v:val="VT0(0.15):1" />
					<v:ud
   v:nameU="TopRightOffset"
   v:prompt=""
   v:val="VT0(0.15):1" />
					<v:ud
   v:nameU="BotLeftOffset"
   v:prompt=""
   v:val="VT0(0.15):1" />
					<v:ud
   v:nameU="BotRightOffset"
   v:prompt=""
   v:val="VT0(0.15):1" />
					<v:ud
   v:nameU="visVersion"
   v:prompt=""
   v:val="VT0(15):26" />
					<v:ud
   v:nameU="TopLeftOffset"
   v:prompt=""
   v:val="VT0(0.01953125):1" />
					<v:ud
   v:nameU="TopRightOffset"
   v:prompt=""
   v:val="VT0(0.01953125):1" />
					<v:ud
   v:nameU="BotLeftOffset"
   v:prompt=""
   v:val="VT0(0.01953125):1" />
					<v:ud
   v:nameU="BotRightOffset"
   v:prompt=""
   v:val="VT0(0.01953125):1" />
				</v:userDefs>
				<path
   d="m 1.41,612 h 2.11 a 1.40623,1.40623 -180 0 0 1.4,-1.41 v -25.45 a 1.40623,1.40623 -180 0 0 -1.4,-1.41 H 1.41 A 1.40623,1.40623 -180 0 0 0,585.14 v 25.45 A 1.40623,1.40623 -180 0 0 1.41,612 Z"
   class="st4"
   id="path24"
   style="fill-opacity:1" />
			</g>
			<g
   id="shape1049-44"
   v:mID="1049"
   v:groupContext="shape"
   transform="rotate(-2.95962,-1483.9405,279.51923)"
   style="fill-opacity:1">
				<title
   id="title24">Center Drag Circle.1049</title>
				<v:userDefs>
					<v:ud
   v:nameU="visVersion"
   v:val="VT0(15):26" />
					<v:ud
   v:nameU="visMasterStencil"
   v:prompt=""
   v:val="VT4(Basic_U.vssx)" />
				</v:userDefs>
				<path
   d="m -9.86,612 a 9.86,9.86 0 0 1 19.72,0 9.86,9.86 0 1 1 -19.72,0 z"
   class="st1"
   id="path25"
   style="fill-opacity:1" />
			</g>
			<g
   id="shape1048-46"
   v:mID="1048"
   v:groupContext="shape"
   transform="translate(15.1874,-77.0625)"
   style="fill-opacity:1">
				<title
   id="title25">Center Drag Circle.1048</title>
				<v:userDefs>
					<v:ud
   v:nameU="visVersion"
   v:val="VT0(15):26" />
					<v:ud
   v:nameU="visMasterStencil"
   v:prompt=""
   v:val="VT4(Basic_U.vssx)" />
				</v:userDefs>
				<path
   d="m -6.11,612 a 6.11,6.11 0 0 1 12.22,0 6.11,6.11 0 1 1 -12.22,0 z"
   class="st1"
   id="path26"
   style="fill-opacity:1" />
			</g>
			<g
   id="group1052-48"
   transform="translate(9.56241,-60.1875)"
   v:mID="1052"
   v:groupContext="group"
   style="fill-opacity:1">
				<title
   id="title26">Sheet.1052</title>
			</g>
		</g>
	</g>
</svg>
