<?xml version="1.0" encoding="UTF-8" standalone="no"?>
<!DOCTYPE svg PUBLIC "-//W3C//DTD SVG 1.1//EN" "http://www.w3.org/Graphics/SVG/1.1/DTD/svg11.dtd">
<!-- Generated by Microsoft Visio, SVG Export Pump-Unpressed.svg Page-1 -->
<svg xmlns="http://www.w3.org/2000/svg" xmlns:xlink="http://www.w3.org/1999/xlink" xmlns:ev="http://www.w3.org/2001/xml-events"
		xmlns:v="http://schemas.microsoft.com/visio/2003/SVGExtensions/" width="11in" height="8.5in" viewBox="0 0 792 612"
		xml:space="preserve" color-interpolation-filters="sRGB" class="st5">
	<v:documentProperties v:langID="1033" v:viewMarkup="false">
		<v:userDefs>
			<v:ud v:nameU="msvNoAutoConnect" v:val="VT0(0):26"/>
		</v:userDefs>
	</v:documentProperties>

	<style type="text/css">
	<![CDATA[
		.st1 {fill:#ffffff;stroke:#000000;stroke-linecap:round;stroke-linejoin:round;stroke-width:0.75}
		.st2 {fill:#ffffff}
		.st3 {stroke:#000000;stroke-linecap:round;stroke-linejoin:round;stroke-width:0.75}
		.st4 {fill:none;stroke:#000000;stroke-linecap:round;stroke-linejoin:round;stroke-width:0.75}
		.st5 {fill:none;fill-rule:evenodd;font-size:12px;overflow:visible;stroke-linecap:square;stroke-miterlimit:3}
	]]>
	</style>

	<g v:mID="0" v:index="1" v:groupContext="foregroundPage">
		<title>Page-1</title>
		<v:pageProperties v:drawingScale="1" v:pageScale="1" v:drawingUnits="19" v:shadowOffsetX="9" v:shadowOffsetY="-9"/>
		<v:layer v:index="0" v:visibility="hidden" v:print="false" v:snap="false" v:glue="false"/>
		<v:layer v:name="Connector" v:index="1"/>
		<g id="group1082-1" transform="translate(876.659,-201.777) rotate(30) scale(-1,1)" v:mID="1082" v:groupContext="group">
			<title>Sheet.1082</title>
			<g id="shape1079-2" v:mID="1079" v:groupContext="shape" transform="translate(59.0625,-31.2891)">
				<title>Rectangle.1079</title>
				<v:userDefs>
					<v:ud v:nameU="visVersion" v:val="VT0(15):26"/>
				</v:userDefs>
				<rect x="0" y="596.953" width="200.25" height="15.0469" class="st1"/>
			</g>
			<g id="shape1080-4" v:mID="1080" v:groupContext="shape" transform="translate(257.203,-28.3594)">
				<title>Rounded Rectangle.1080</title>
				<v:userDefs>
					<v:ud v:nameU="CTypeTopLeftSnip" v:prompt="" v:val="VT0(0):5"/>
					<v:ud v:nameU="CTypeTopRightSnip" v:prompt="" v:val="VT0(0):5"/>
					<v:ud v:nameU="CTypeBotLeftSnip" v:prompt="" v:val="VT0(0):5"/>
					<v:ud v:nameU="CTypeBotRightSnip" v:prompt="" v:val="VT0(0):5"/>
					<v:ud v:nameU="CornerLockHoriz" v:prompt="" v:val="VT0(1):5"/>
					<v:ud v:nameU="CornerLockVert" v:prompt="" v:val="VT0(1):5"/>
					<v:ud v:nameU="CornerLockDiag" v:prompt="" v:val="VT0(0):5"/>
					<v:ud v:nameU="TopLeftOffset" v:prompt="" v:val="VT0(0.15):1"/>
					<v:ud v:nameU="TopRightOffset" v:prompt="" v:val="VT0(0.15):1"/>
					<v:ud v:nameU="BotLeftOffset" v:prompt="" v:val="VT0(0.15):1"/>
					<v:ud v:nameU="BotRightOffset" v:prompt="" v:val="VT0(0.15):1"/>
					<v:ud v:nameU="visVersion" v:prompt="" v:val="VT0(15):26"/>
					<v:ud v:nameU="TopLeftOffset" v:prompt="" v:val="VT0(0.046874999999996):1"/>
					<v:ud v:nameU="TopRightOffset" v:prompt="" v:val="VT0(0.046874999999996):1"/>
					<v:ud v:nameU="BotLeftOffset" v:prompt="" v:val="VT0(0.046874999999996):1"/>
					<v:ud v:nameU="BotRightOffset" v:prompt="" v:val="VT0(0.046874999999996):1"/>
				</v:userDefs>
				<path d="M3.37 612 L75.23 612 A3.37494 3.37494 -180 0 0 78.61 608.63 L78.61 594.47 A3.37494 3.37494 -180 0 0 75.23
							 591.09 L3.37 591.09 A3.37494 3.37494 -180 0 0 -0 594.47 L0 608.63 A3.37494 3.37494 -180 0 0 3.37 612
							 Z" class="st1"/>
			</g>
			<g id="shape1081-6" v:mID="1081" v:groupContext="shape">
				<title>Sheet.1081</title>
				<path d="M41.23 562.78 L39.3 562.78 L39.3 562.79 A10.4062 10.4062 -180 0 0 38.81 562.78 A38.8125 38.8125 -180 0 0
							 0 601.59 A10.4063 10.4063 -180 1 0 20.81 601.59 A18 18 0 0 1 38.81 583.59 A10.4062 10.4062 -180 0 0
							 39.3 583.58 L39.3 583.59 L41.23 583.59 L58.57 583.59 L60.58 583.59 A2.41871 2.41871 -180 0 0 63 581.18
							 L63 565.2 A2.41871 2.41871 -180 0 0 60.58 562.78 L58.57 562.78 L41.23 562.78 Z" class="st1"/>
			</g>
		</g>
		<g id="shape1084-8" v:mID="1084" v:groupContext="shape" transform="translate(600.75,-274.5) scale(-1,1)">
			<title>Rounded Rectangle.1084</title>
			<v:userDefs>
				<v:ud v:nameU="CTypeTopLeftSnip" v:prompt="" v:val="VT0(0):5"/>
				<v:ud v:nameU="CTypeTopRightSnip" v:prompt="" v:val="VT0(0):5"/>
				<v:ud v:nameU="CTypeBotLeftSnip" v:prompt="" v:val="VT0(0):5"/>
				<v:ud v:nameU="CTypeBotRightSnip" v:prompt="" v:val="VT0(0):5"/>
				<v:ud v:nameU="CornerLockHoriz" v:prompt="" v:val="VT0(1):5"/>
				<v:ud v:nameU="CornerLockVert" v:prompt="" v:val="VT0(1):5"/>
				<v:ud v:nameU="CornerLockDiag" v:prompt="" v:val="VT0(0):5"/>
				<v:ud v:nameU="TopLeftOffset" v:prompt="" v:val="VT0(0.15):1"/>
				<v:ud v:nameU="TopRightOffset" v:prompt="" v:val="VT0(0.15):1"/>
				<v:ud v:nameU="BotLeftOffset" v:prompt="" v:val="VT0(0.15):1"/>
				<v:ud v:nameU="BotRightOffset" v:prompt="" v:val="VT0(0.15):1"/>
				<v:ud v:nameU="visVersion" v:prompt="" v:val="VT0(15):26"/>
				<v:ud v:nameU="TopLeftOffset" v:prompt="" v:val="VT0(0.040625):1"/>
				<v:ud v:nameU="TopRightOffset" v:prompt="" v:val="VT0(0.040625):1"/>
				<v:ud v:nameU="BotLeftOffset" v:prompt="" v:val="VT0(0.040625):1"/>
				<v:ud v:nameU="BotRightOffset" v:prompt="" v:val="VT0(0.040625):1"/>
			</v:userDefs>
			<path d="M2.92 612 L26.32 612 A2.92495 2.92495 -180 0 0 29.25 609.07 L29.25 595.42 A2.92495 2.92495 -180 0 0 26.32 592.5
						 L2.93 592.5 A2.92495 2.92495 -180 0 0 -0 595.43 L0 609.08 A2.92495 2.92495 -180 0 0 2.93 612 Z"
					class="st1"/>
		</g>
		<g id="shape1085-10" v:mID="1085" v:groupContext="shape" transform="translate(532.125,-295.312)">
			<title>Rounded Rectangle.1085</title>
			<v:userDefs>
				<v:ud v:nameU="CTypeTopLeftSnip" v:prompt="" v:val="VT0(0):5"/>
				<v:ud v:nameU="CTypeTopRightSnip" v:prompt="" v:val="VT0(0):5"/>
				<v:ud v:nameU="CTypeBotLeftSnip" v:prompt="" v:val="VT0(0):5"/>
				<v:ud v:nameU="CTypeBotRightSnip" v:prompt="" v:val="VT0(0):5"/>
				<v:ud v:nameU="CornerLockHoriz" v:prompt="" v:val="VT0(1):5"/>
				<v:ud v:nameU="CornerLockVert" v:prompt="" v:val="VT0(1):5"/>
				<v:ud v:nameU="CornerLockDiag" v:prompt="" v:val="VT0(0):5"/>
				<v:ud v:nameU="TopLeftOffset" v:prompt="" v:val="VT0(0.15):1"/>
				<v:ud v:nameU="TopRightOffset" v:prompt="" v:val="VT0(0.15):1"/>
				<v:ud v:nameU="BotLeftOffset" v:prompt="" v:val="VT0(0.15):1"/>
				<v:ud v:nameU="BotRightOffset" v:prompt="" v:val="VT0(0.15):1"/>
				<v:ud v:nameU="visVersion" v:prompt="" v:val="VT0(15):26"/>
				<v:ud v:nameU="TopLeftOffset" v:prompt="" v:val="VT0(0.1953125):1"/>
				<v:ud v:nameU="TopRightOffset" v:prompt="" v:val="VT0(0.1953125):1"/>
				<v:ud v:nameU="BotLeftOffset" v:prompt="" v:val="VT0(0.1953125):1"/>
				<v:ud v:nameU="BotRightOffset" v:prompt="" v:val="VT0(0.1953125):1"/>
			</v:userDefs>
			<path d="M14.06 612 L29.81 612 A14.0623 14.0623 -180 0 0 43.87 597.94 L43.87 585.35 A14.0623 14.0623 -180 0 0 29.81 571.29
						 L14.06 571.29 A14.0623 14.0623 -180 0 0 -0 585.35 L0 597.94 A14.0623 14.0623 -180 0 0 14.06 612 Z"
					class="st1"/>
		</g>
		<g id="group1061-12" transform="translate(584.437,-252) scale(-1,1)" v:mID="1061" v:groupContext="group">
			<title>Sheet.1061</title>
			<g id="shape1004-13" v:mID="1004" v:groupContext="shape" transform="translate(68.0624,-8.3781)">
				<title>Sheet.1004</title>
				<rect x="0" y="564.047" width="236.25" height="47.9531" class="st1"/>
			</g>
			<g id="shape1009-15" v:mID="1009" v:groupContext="shape" transform="translate(312.75,-10.6984)">
				<title>Sheet.1009</title>
				<path d="M5.91 574.59 L5.91 606.37 L0 612 L0 568.69 L5.91 574.59 Z" class="st1"/>
			</g>
			<g id="shape1018-17" v:mID="1018" v:groupContext="shape" transform="translate(318.937,-24.2687)">
				<title>Sheet.1018</title>
				<path d="M6.79 596.66 A6.99258 6.99258 0 1 1 6.79 610.64 L6.79 596.66 ZM0 612 L6.61 612 L6.61 595.83 L0 595.83 L0
							 612 Z" class="st2"/>
				<path d="M6.79 596.66 A6.99258 6.99258 0 1 1 6.79 610.64 L6.79 596.66" class="st3"/>
				<path d="M6.61 599.98 L0 599.98" class="st3"/>
				<path d="M6.61 607.85 L0 607.85" class="st3"/>
				<path d="M0 612 L6.61 612 L6.61 595.83 L0 595.83 L0 612" class="st3"/>
			</g>
			<g id="shape1019-23" v:mID="1019" v:groupContext="shape" transform="translate(916.407,556.389) rotate(90.3)">
				<title>Snip and Round Corner Rectangle.1019</title>
				<v:userDefs>
					<v:ud v:nameU="CTypeTopLeftSnip" v:prompt="" v:val="VT0(0):5"/>
					<v:ud v:nameU="CTypeTopRightSnip" v:prompt="" v:val="VT0(1):5"/>
					<v:ud v:nameU="CTypeBotLeftSnip" v:prompt="" v:val="VT0(1):5"/>
					<v:ud v:nameU="CTypeBotRightSnip" v:prompt="" v:val="VT0(0):5"/>
					<v:ud v:nameU="CornerLockHoriz" v:prompt="" v:val="VT0(0):5"/>
					<v:ud v:nameU="CornerLockVert" v:prompt="" v:val="VT0(0):5"/>
					<v:ud v:nameU="CornerLockDiag" v:prompt="" v:val="VT0(0):5"/>
					<v:ud v:nameU="TopLeftOffset" v:prompt="" v:val="VT0(0.15):1"/>
					<v:ud v:nameU="TopRightOffset" v:prompt="" v:val="VT0(0.15):1"/>
					<v:ud v:nameU="BotLeftOffset" v:prompt="" v:val="VT0(0.15):1"/>
					<v:ud v:nameU="BotRightOffset" v:prompt="" v:val="VT0(0.15):1"/>
					<v:ud v:nameU="visVersion" v:prompt="" v:val="VT0(15):26"/>
					<v:ud v:nameU="CTypeTopRightSnip" v:prompt="" v:val="VT0(0):5"/>
					<v:ud v:nameU="CTypeBotLeftSnip" v:prompt="" v:val="VT0(0):5"/>
					<v:ud v:nameU="CornerLockHoriz" v:prompt="" v:val="VT0(1):5"/>
					<v:ud v:nameU="CornerLockVert" v:prompt="" v:val="VT0(1):5"/>
					<v:ud v:nameU="TopLeftOffset" v:prompt="" v:val="VT0(0.035503468810004):1"/>
					<v:ud v:nameU="TopRightOffset" v:prompt="" v:val="VT0(0.035503468810004):1"/>
					<v:ud v:nameU="BotLeftOffset" v:prompt="" v:val="VT0(0.035503468810004):1"/>
					<v:ud v:nameU="BotRightOffset" v:prompt="" v:val="VT0(0.035503468810004):1"/>
				</v:userDefs>
				<path d="M2.56 612 L50.32 612 A2.55621 2.55621 -180 0 0 52.88 609.44 L52.88 606.42 A2.55621 2.55621 -180 0 0 50.32
							 603.87 L2.56 603.87 A2.55621 2.55621 -180 0 0 0 606.42 L0 609.44 A2.55621 2.55621 -180 0 0 2.56 612
							 Z" class="st1"/>
			</g>
			<g id="shape1020-25" v:mID="1020" v:groupContext="shape" transform="translate(265.366,-56.3312)">
				<title>Snip and Round Corner Rectangle.1020</title>
				<v:userDefs>
					<v:ud v:nameU="CTypeTopLeftSnip" v:prompt="" v:val="VT0(0):5"/>
					<v:ud v:nameU="CTypeTopRightSnip" v:prompt="" v:val="VT0(1):5"/>
					<v:ud v:nameU="CTypeBotLeftSnip" v:prompt="" v:val="VT0(1):5"/>
					<v:ud v:nameU="CTypeBotRightSnip" v:prompt="" v:val="VT0(0):5"/>
					<v:ud v:nameU="CornerLockHoriz" v:prompt="" v:val="VT0(0):5"/>
					<v:ud v:nameU="CornerLockVert" v:prompt="" v:val="VT0(0):5"/>
					<v:ud v:nameU="CornerLockDiag" v:prompt="" v:val="VT0(0):5"/>
					<v:ud v:nameU="TopLeftOffset" v:prompt="" v:val="VT0(0.15):1"/>
					<v:ud v:nameU="TopRightOffset" v:prompt="" v:val="VT0(0.15):1"/>
					<v:ud v:nameU="BotLeftOffset" v:prompt="" v:val="VT0(0.15):1"/>
					<v:ud v:nameU="BotRightOffset" v:prompt="" v:val="VT0(0.15):1"/>
					<v:ud v:nameU="visVersion" v:prompt="" v:val="VT0(15):26"/>
					<v:ud v:nameU="CTypeTopRightSnip" v:prompt="" v:val="VT0(0):5"/>
					<v:ud v:nameU="CornerLockHoriz" v:prompt="" v:val="VT0(1):5"/>
					<v:ud v:nameU="TopLeftOffset" v:prompt="" v:val="VT0(0.052960855651161):1"/>
					<v:ud v:nameU="TopRightOffset" v:prompt="" v:val="VT0(0.052960855651161):1"/>
					<v:ud v:nameU="BotLeftOffset" v:prompt="" v:val="VT0(0):1"/>
					<v:ud v:nameU="BotRightOffset" v:prompt="" v:val="VT0(0):1"/>
				</v:userDefs>
				<path d="M0 612 L23.48 612 L23.48 608.19 A3.81312 3.81312 -180 0 0 19.67 604.37 L3.81 604.37 A3.81312 3.81312 -180
							 0 0 0 608.19 L0 612 Z" class="st1"/>
			</g>
			<g id="shape1028-27" v:mID="1028" v:groupContext="shape" transform="translate(271.937,0)">
				<title>Sheet.1028</title>
				<path d="M25.48 593.43 A3.12501 3.12501 -180 0 0 27.48 590.52 A3.12501 3.12501 -180 0 0 21.23 590.51 A3.12501 3.12501
							 -180 0 0 23.23 593.43 L23.23 609.75 L4.25 609.75 L4.25 593.43 A3.12501 3.12501 -180 0 0 6.25 590.52
							 A3.12501 3.12501 -180 0 0 0 590.51 A3.12501 3.12501 -180 0 0 2 593.43 L2 610.87 A1.12498 1.12498 -180
							 0 0 3.13 612 L24.36 612 A1.12498 1.12498 -180 0 0 25.48 610.87 L25.48 593.43 Z" class="st1"/>
			</g>
			<g id="shape1042-29" v:mID="1042" v:groupContext="shape" transform="translate(0,-1.06808)">
				<title>Sheet.1042</title>
				<path d="M68.14 610.26 L68.14 585.51 L68.06 585.51 L68.06 556.74 L43.31 556.74 L43.31 549.2 A1.38535 1.38535 -180
							 0 0 41.93 547.82 L25.03 547.82 L25.03 530.25 A5.21476 5.21476 -180 0 0 19.82 525.04 L5.21 525.04 A5.21476
							 5.21476 -180 0 0 0 530.25 L0 567.35 A5.21476 5.21476 -180 0 0 3.66 572.33 L3.66 608.01 A2.24996 2.24996
							 -180 0 0 5.91 610.26 L50.84 610.26 A1.74442 1.74442 -180 1 0 54.32 610.26 L64.65 610.26 A1.74442 1.74442
							 -180 1 0 68.14 610.26 Z" class="st1"/>
			</g>
			<g id="shape1043-31" v:mID="1043" v:groupContext="shape" transform="translate(5.06241,-11.8125)">
				<title>Sheet.1043</title>
				<path d="M0 612 L61.12 612" class="st3"/>
			</g>
			<g id="shape1044-34" v:mID="1044" v:groupContext="shape" transform="translate(5.06241,-7.2)">
				<title>Sheet.1044</title>
				<path d="M0 612 L61.12 612" class="st3"/>
			</g>
			<g id="shape1045-37" v:mID="1045" v:groupContext="shape" transform="translate(5.06241,-46.8)">
				<title>Sheet.1045</title>
				<path d="M0 612 L61.12 612" class="st3"/>
			</g>
			<g id="shape1046-40" v:mID="1046" v:groupContext="shape" transform="translate(4.35929,-48.2344)">
				<title>Rounded Rectangle.1046</title>
				<v:userDefs>
					<v:ud v:nameU="CTypeTopLeftSnip" v:prompt="" v:val="VT0(0):5"/>
					<v:ud v:nameU="CTypeTopRightSnip" v:prompt="" v:val="VT0(0):5"/>
					<v:ud v:nameU="CTypeBotLeftSnip" v:prompt="" v:val="VT0(0):5"/>
					<v:ud v:nameU="CTypeBotRightSnip" v:prompt="" v:val="VT0(0):5"/>
					<v:ud v:nameU="CornerLockHoriz" v:prompt="" v:val="VT0(1):5"/>
					<v:ud v:nameU="CornerLockVert" v:prompt="" v:val="VT0(1):5"/>
					<v:ud v:nameU="CornerLockDiag" v:prompt="" v:val="VT0(0):5"/>
					<v:ud v:nameU="TopLeftOffset" v:prompt="" v:val="VT0(0.15):1"/>
					<v:ud v:nameU="TopRightOffset" v:prompt="" v:val="VT0(0.15):1"/>
					<v:ud v:nameU="BotLeftOffset" v:prompt="" v:val="VT0(0.15):1"/>
					<v:ud v:nameU="BotRightOffset" v:prompt="" v:val="VT0(0.15):1"/>
					<v:ud v:nameU="visVersion" v:prompt="" v:val="VT0(15):26"/>
					<v:ud v:nameU="TopLeftOffset" v:prompt="" v:val="VT0(0.032118055555556):1"/>
					<v:ud v:nameU="TopRightOffset" v:prompt="" v:val="VT0(0.032118055555556):1"/>
					<v:ud v:nameU="BotLeftOffset" v:prompt="" v:val="VT0(0.032118055555556):1"/>
					<v:ud v:nameU="BotRightOffset" v:prompt="" v:val="VT0(0.032118055555556):1"/>
				</v:userDefs>
				<path d="M2.31 612 L8.09 612 A2.31246 2.31246 -180 0 0 10.41 609.69 L10.41 586.05 A2.31246 2.31246 -180 0 0 8.09
							 583.73 L2.31 583.73 A2.31246 2.31246 -180 0 0 0 586.05 L0 609.69 A2.31246 2.31246 -180 0 0 2.31 612
							 Z" class="st4"/>
			</g>
			<g id="shape1047-42" v:mID="1047" v:groupContext="shape" transform="translate(16.7343,-48.2344)">
				<title>Rounded Rectangle.1047</title>
				<v:userDefs>
					<v:ud v:nameU="CTypeTopLeftSnip" v:prompt="" v:val="VT0(0):5"/>
					<v:ud v:nameU="CTypeTopRightSnip" v:prompt="" v:val="VT0(0):5"/>
					<v:ud v:nameU="CTypeBotLeftSnip" v:prompt="" v:val="VT0(0):5"/>
					<v:ud v:nameU="CTypeBotRightSnip" v:prompt="" v:val="VT0(0):5"/>
					<v:ud v:nameU="CornerLockHoriz" v:prompt="" v:val="VT0(1):5"/>
					<v:ud v:nameU="CornerLockVert" v:prompt="" v:val="VT0(1):5"/>
					<v:ud v:nameU="CornerLockDiag" v:prompt="" v:val="VT0(0):5"/>
					<v:ud v:nameU="TopLeftOffset" v:prompt="" v:val="VT0(0.15):1"/>
					<v:ud v:nameU="TopRightOffset" v:prompt="" v:val="VT0(0.15):1"/>
					<v:ud v:nameU="BotLeftOffset" v:prompt="" v:val="VT0(0.15):1"/>
					<v:ud v:nameU="BotRightOffset" v:prompt="" v:val="VT0(0.15):1"/>
					<v:ud v:nameU="visVersion" v:prompt="" v:val="VT0(15):26"/>
					<v:ud v:nameU="TopLeftOffset" v:prompt="" v:val="VT0(0.01953125):1"/>
					<v:ud v:nameU="TopRightOffset" v:prompt="" v:val="VT0(0.01953125):1"/>
					<v:ud v:nameU="BotLeftOffset" v:prompt="" v:val="VT0(0.01953125):1"/>
					<v:ud v:nameU="BotRightOffset" v:prompt="" v:val="VT0(0.01953125):1"/>
				</v:userDefs>
				<path d="M1.41 612 L3.52 612 A1.40623 1.40623 -180 0 0 4.92 610.59 L4.92 585.14 A1.40623 1.40623 -180 0 0 3.52 583.73
							 L1.41 583.73 A1.40623 1.40623 -180 0 0 -0 585.14 L0 610.59 A1.40623 1.40623 -180 0 0 1.41 612 Z"
						class="st4"/>
			</g>
			<g id="shape1049-44" v:mID="1049" v:groupContext="shape" transform="translate(-16.4115,-76.2462) rotate(-2.95962)">
				<title>Center Drag Circle.1049</title>
				<v:userDefs>
					<v:ud v:nameU="visVersion" v:val="VT0(15):26"/>
					<v:ud v:nameU="visMasterStencil" v:prompt="" v:val="VT4(Basic_U.vssx)"/>
				</v:userDefs>
				<path d="M-9.86 612 A9.85681 9.85681 0 0 1 9.86 612 A9.85681 9.85681 0 1 1 -9.86 612 Z" class="st1"/>
			</g>
			<g id="shape1048-46" v:mID="1048" v:groupContext="shape" transform="translate(15.1874,-77.0625)">
				<title>Center Drag Circle.1048</title>
				<v:userDefs>
					<v:ud v:nameU="visVersion" v:val="VT0(15):26"/>
					<v:ud v:nameU="visMasterStencil" v:prompt="" v:val="VT4(Basic_U.vssx)"/>
				</v:userDefs>
				<path d="M-6.11 612 A6.10714 6.10714 0 0 1 6.11 612 A6.10714 6.10714 0 1 1 -6.11 612 Z" class="st1"/>
			</g>
			<g id="group1052-48" transform="translate(9.56241,-60.1875)" v:mID="1052" v:groupContext="group">
				<title>Sheet.1052</title>
			</g>
		</g>
	</g>
</svg>
